<svg xmlns="http://www.w3.org/2000/svg" viewBox="0 0 1200 750" width="1200" height="750" role="img">
<defs><linearGradient id="sky" x1="0" y1="0" x2="0" y2="1"><stop offset="0" stop-color="#1d2536"/><stop offset="1" stop-color="#33405c"/></linearGradient></defs><rect x="0" y="0" width="1200" height="500" fill="url(#sky)"/><rect x="0" y="500" width="1200" height="250" fill="#151a24"/><circle cx="0" cy="14" r="1.6" fill="#e8ecf2" opacity="0.18"/><circle cx="197" cy="97" r="1" fill="#e8ecf2" opacity="0.24"/><circle cx="394" cy="180" r="1" fill="#e8ecf2" opacity="0.3"/><circle cx="591" cy="263" r="1" fill="#e8ecf2" opacity="0.36"/><circle cx="788" cy="346" r="1.6" fill="#e8ecf2" opacity="0.42"/><circle cx="985" cy="429" r="1" fill="#e8ecf2" opacity="0.18"/><circle cx="1182" cy="82" r="1" fill="#e8ecf2" opacity="0.24"/><circle cx="179" cy="165" r="1" fill="#e8ecf2" opacity="0.3"/><circle cx="376" cy="248" r="1.6" fill="#e8ecf2" opacity="0.36"/><circle cx="573" cy="331" r="1" fill="#e8ecf2" opacity="0.42"/><circle cx="770" cy="414" r="1" fill="#e8ecf2" opacity="0.18"/><circle cx="967" cy="67" r="1" fill="#e8ecf2" opacity="0.24"/><circle cx="1164" cy="150" r="1.6" fill="#e8ecf2" opacity="0.3"/><circle cx="161" cy="233" r="1" fill="#e8ecf2" opacity="0.36"/><circle cx="358" cy="316" r="1" fill="#e8ecf2" opacity="0.42"/><circle cx="555" cy="399" r="1" fill="#e8ecf2" opacity="0.18"/><circle cx="752" cy="52" r="1.6" fill="#e8ecf2" opacity="0.24"/><circle cx="949" cy="135" r="1" fill="#e8ecf2" opacity="0.3"/><circle cx="1146" cy="218" r="1" fill="#e8ecf2" opacity="0.36"/><circle cx="143" cy="301" r="1" fill="#e8ecf2" opacity="0.42"/><circle cx="340" cy="384" r="1.6" fill="#e8ecf2" opacity="0.18"/><circle cx="537" cy="37" r="1" fill="#e8ecf2" opacity="0.24"/><circle cx="734" cy="120" r="1" fill="#e8ecf2" opacity="0.3"/><circle cx="931" cy="203" r="1" fill="#e8ecf2" opacity="0.36"/><circle cx="1128" cy="286" r="1.6" fill="#e8ecf2" opacity="0.42"/><circle cx="125" cy="369" r="1" fill="#e8ecf2" opacity="0.18"/><circle cx="322" cy="22" r="1" fill="#e8ecf2" opacity="0.24"/><circle cx="519" cy="105" r="1" fill="#e8ecf2" opacity="0.3"/><circle cx="716" cy="188" r="1.6" fill="#e8ecf2" opacity="0.36"/><circle cx="913" cy="271" r="1" fill="#e8ecf2" opacity="0.42"/><circle cx="1110" cy="354" r="1" fill="#e8ecf2" opacity="0.18"/><circle cx="107" cy="437" r="1" fill="#e8ecf2" opacity="0.24"/><circle cx="304" cy="90" r="1.6" fill="#e8ecf2" opacity="0.3"/><circle cx="501" cy="173" r="1" fill="#e8ecf2" opacity="0.36"/><circle cx="698" cy="256" r="1" fill="#e8ecf2" opacity="0.42"/><circle cx="895" cy="339" r="1" fill="#e8ecf2" opacity="0.18"/><circle cx="1092" cy="422" r="1.6" fill="#e8ecf2" opacity="0.24"/><circle cx="89" cy="75" r="1" fill="#e8ecf2" opacity="0.3"/><circle cx="286" cy="158" r="1" fill="#e8ecf2" opacity="0.36"/><circle cx="483" cy="241" r="1" fill="#e8ecf2" opacity="0.42"/><rect x="0" y="500" width="1200" height="250" fill="#1e2733"/><line x1="0" y1="520" x2="1200" y2="512" stroke="#232c3a" stroke-width="2" opacity="0.5"/><line x1="0" y1="554" x2="1200" y2="546" stroke="#232c3a" stroke-width="2" opacity="0.5"/><line x1="0" y1="588" x2="1200" y2="580" stroke="#232c3a" stroke-width="2" opacity="0.5"/><line x1="0" y1="622" x2="1200" y2="614" stroke="#232c3a" stroke-width="2" opacity="0.5"/><line x1="0" y1="656" x2="1200" y2="648" stroke="#232c3a" stroke-width="2" opacity="0.5"/><line x1="0" y1="690" x2="1200" y2="682" stroke="#232c3a" stroke-width="2" opacity="0.5"/><line x1="0" y1="724" x2="1200" y2="716" stroke="#232c3a" stroke-width="2" opacity="0.5"/><rect x="380" y="250" width="440" height="258" fill="#6b4a3f"/><rect x="382" y="252" width="40" height="16" fill="#7a5548" rx="1" opacity="0.55"/><rect x="426" y="252" width="40" height="16" fill="#7a5548" rx="1" opacity="0.55"/><rect x="470" y="252" width="40" height="16" fill="#7a5548" rx="1" opacity="0.55"/><rect x="514" y="252" width="40" height="16" fill="#7a5548" rx="1" opacity="0.55"/><rect x="558" y="252" width="40" height="16" fill="#7a5548" rx="1" opacity="0.55"/><rect x="602" y="252" width="40" height="16" fill="#7a5548" rx="1" opacity="0.55"/><rect x="646" y="252" width="40" height="16" fill="#7a5548" rx="1" opacity="0.55"/><rect x="690" y="252" width="40" height="16" fill="#7a5548" rx="1" opacity="0.55"/><rect x="734" y="252" width="40" height="16" fill="#7a5548" rx="1" opacity="0.55"/><rect x="778" y="252" width="40" height="16" fill="#7a5548" rx="1" opacity="0.55"/><rect x="404" y="272" width="40" height="16" fill="#7a5548" rx="1" opacity="0.55"/><rect x="448" y="272" width="40" height="16" fill="#7a5548" rx="1" opacity="0.55"/><rect x="492" y="272" width="40" height="16" fill="#7a5548" rx="1" opacity="0.55"/><rect x="536" y="272" width="40" height="16" fill="#7a5548" rx="1" opacity="0.55"/><rect x="580" y="272" width="40" height="16" fill="#7a5548" rx="1" opacity="0.55"/><rect x="624" y="272" width="40" height="16" fill="#7a5548" rx="1" opacity="0.55"/><rect x="668" y="272" width="40" height="16" fill="#7a5548" rx="1" opacity="0.55"/><rect x="712" y="272" width="40" height="16" fill="#7a5548" rx="1" opacity="0.55"/><rect x="756" y="272" width="40" height="16" fill="#7a5548" rx="1" opacity="0.55"/><rect x="800" y="272" width="40" height="16" fill="#7a5548" rx="1" opacity="0.55"/><rect x="382" y="292" width="40" height="16" fill="#7a5548" rx="1" opacity="0.55"/><rect x="426" y="292" width="40" height="16" fill="#7a5548" rx="1" opacity="0.55"/><rect x="470" y="292" width="40" height="16" fill="#7a5548" rx="1" opacity="0.55"/><rect x="514" y="292" width="40" height="16" fill="#7a5548" rx="1" opacity="0.55"/><rect x="558" y="292" width="40" height="16" fill="#7a5548" rx="1" opacity="0.55"/><rect x="602" y="292" width="40" height="16" fill="#7a5548" rx="1" opacity="0.55"/><rect x="646" y="292" width="40" height="16" fill="#7a5548" rx="1" opacity="0.55"/><rect x="690" y="292" width="40" height="16" fill="#7a5548" rx="1" opacity="0.55"/><rect x="734" y="292" width="40" height="16" fill="#7a5548" rx="1" opacity="0.55"/><rect x="778" y="292" width="40" height="16" fill="#7a5548" rx="1" opacity="0.55"/><rect x="404" y="312" width="40" height="16" fill="#7a5548" rx="1" opacity="0.55"/><rect x="448" y="312" width="40" height="16" fill="#7a5548" rx="1" opacity="0.55"/><rect x="492" y="312" width="40" height="16" fill="#7a5548" rx="1" opacity="0.55"/><rect x="536" y="312" width="40" height="16" fill="#7a5548" rx="1" opacity="0.55"/><rect x="580" y="312" width="40" height="16" fill="#7a5548" rx="1" opacity="0.55"/><rect x="624" y="312" width="40" height="16" fill="#7a5548" rx="1" opacity="0.55"/><rect x="668" y="312" width="40" height="16" fill="#7a5548" rx="1" opacity="0.55"/><rect x="712" y="312" width="40" height="16" fill="#7a5548" rx="1" opacity="0.55"/><rect x="756" y="312" width="40" height="16" fill="#7a5548" rx="1" opacity="0.55"/><rect x="800" y="312" width="40" height="16" fill="#7a5548" rx="1" opacity="0.55"/><rect x="382" y="332" width="40" height="16" fill="#7a5548" rx="1" opacity="0.55"/><rect x="426" y="332" width="40" height="16" fill="#7a5548" rx="1" opacity="0.55"/><rect x="470" y="332" width="40" height="16" fill="#7a5548" rx="1" opacity="0.55"/><rect x="514" y="332" width="40" height="16" fill="#7a5548" rx="1" opacity="0.55"/><rect x="558" y="332" width="40" height="16" fill="#7a5548" rx="1" opacity="0.55"/><rect x="602" y="332" width="40" height="16" fill="#7a5548" rx="1" opacity="0.55"/><rect x="646" y="332" width="40" height="16" fill="#7a5548" rx="1" opacity="0.55"/><rect x="690" y="332" width="40" height="16" fill="#7a5548" rx="1" opacity="0.55"/><rect x="734" y="332" width="40" height="16" fill="#7a5548" rx="1" opacity="0.55"/><rect x="778" y="332" width="40" height="16" fill="#7a5548" rx="1" opacity="0.55"/><rect x="404" y="352" width="40" height="16" fill="#7a5548" rx="1" opacity="0.55"/><rect x="448" y="352" width="40" height="16" fill="#7a5548" rx="1" opacity="0.55"/><rect x="492" y="352" width="40" height="16" fill="#7a5548" rx="1" opacity="0.55"/><rect x="536" y="352" width="40" height="16" fill="#7a5548" rx="1" opacity="0.55"/><rect x="580" y="352" width="40" height="16" fill="#7a5548" rx="1" opacity="0.55"/><rect x="624" y="352" width="40" height="16" fill="#7a5548" rx="1" opacity="0.55"/><rect x="668" y="352" width="40" height="16" fill="#7a5548" rx="1" opacity="0.55"/><rect x="712" y="352" width="40" height="16" fill="#7a5548" rx="1" opacity="0.55"/><rect x="756" y="352" width="40" height="16" fill="#7a5548" rx="1" opacity="0.55"/><rect x="800" y="352" width="40" height="16" fill="#7a5548" rx="1" opacity="0.55"/><rect x="382" y="372" width="40" height="16" fill="#7a5548" rx="1" opacity="0.55"/><rect x="426" y="372" width="40" height="16" fill="#7a5548" rx="1" opacity="0.55"/><rect x="470" y="372" width="40" height="16" fill="#7a5548" rx="1" opacity="0.55"/><rect x="514" y="372" width="40" height="16" fill="#7a5548" rx="1" opacity="0.55"/><rect x="558" y="372" width="40" height="16" fill="#7a5548" rx="1" opacity="0.55"/><rect x="602" y="372" width="40" height="16" fill="#7a5548" rx="1" opacity="0.55"/><rect x="646" y="372" width="40" height="16" fill="#7a5548" rx="1" opacity="0.55"/><rect x="690" y="372" width="40" height="16" fill="#7a5548" rx="1" opacity="0.55"/><rect x="734" y="372" width="40" height="16" fill="#7a5548" rx="1" opacity="0.55"/><rect x="778" y="372" width="40" height="16" fill="#7a5548" rx="1" opacity="0.55"/><rect x="404" y="392" width="40" height="16" fill="#7a5548" rx="1" opacity="0.55"/><rect x="448" y="392" width="40" height="16" fill="#7a5548" rx="1" opacity="0.55"/><rect x="492" y="392" width="40" height="16" fill="#7a5548" rx="1" opacity="0.55"/><rect x="536" y="392" width="40" height="16" fill="#7a5548" rx="1" opacity="0.55"/><rect x="580" y="392" width="40" height="16" fill="#7a5548" rx="1" opacity="0.55"/><rect x="624" y="392" width="40" height="16" fill="#7a5548" rx="1" opacity="0.55"/><rect x="668" y="392" width="40" height="16" fill="#7a5548" rx="1" opacity="0.55"/><rect x="712" y="392" width="40" height="16" fill="#7a5548" rx="1" opacity="0.55"/><rect x="756" y="392" width="40" height="16" fill="#7a5548" rx="1" opacity="0.55"/><rect x="800" y="392" width="40" height="16" fill="#7a5548" rx="1" opacity="0.55"/><rect x="382" y="412" width="40" height="16" fill="#7a5548" rx="1" opacity="0.55"/><rect x="426" y="412" width="40" height="16" fill="#7a5548" rx="1" opacity="0.55"/><rect x="470" y="412" width="40" height="16" fill="#7a5548" rx="1" opacity="0.55"/><rect x="514" y="412" width="40" height="16" fill="#7a5548" rx="1" opacity="0.55"/><rect x="558" y="412" width="40" height="16" fill="#7a5548" rx="1" opacity="0.55"/><rect x="602" y="412" width="40" height="16" fill="#7a5548" rx="1" opacity="0.55"/><rect x="646" y="412" width="40" height="16" fill="#7a5548" rx="1" opacity="0.55"/><rect x="690" y="412" width="40" height="16" fill="#7a5548" rx="1" opacity="0.55"/><rect x="734" y="412" width="40" height="16" fill="#7a5548" rx="1" opacity="0.55"/><rect x="778" y="412" width="40" height="16" fill="#7a5548" rx="1" opacity="0.55"/><rect x="404" y="432" width="40" height="16" fill="#7a5548" rx="1" opacity="0.55"/><rect x="448" y="432" width="40" height="16" fill="#7a5548" rx="1" opacity="0.55"/><rect x="492" y="432" width="40" height="16" fill="#7a5548" rx="1" opacity="0.55"/><rect x="536" y="432" width="40" height="16" fill="#7a5548" rx="1" opacity="0.55"/><rect x="580" y="432" width="40" height="16" fill="#7a5548" rx="1" opacity="0.55"/><rect x="624" y="432" width="40" height="16" fill="#7a5548" rx="1" opacity="0.55"/><rect x="668" y="432" width="40" height="16" fill="#7a5548" rx="1" opacity="0.55"/><rect x="712" y="432" width="40" height="16" fill="#7a5548" rx="1" opacity="0.55"/><rect x="756" y="432" width="40" height="16" fill="#7a5548" rx="1" opacity="0.55"/><rect x="800" y="432" width="40" height="16" fill="#7a5548" rx="1" opacity="0.55"/><rect x="382" y="452" width="40" height="16" fill="#7a5548" rx="1" opacity="0.55"/><rect x="426" y="452" width="40" height="16" fill="#7a5548" rx="1" opacity="0.55"/><rect x="470" y="452" width="40" height="16" fill="#7a5548" rx="1" opacity="0.55"/><rect x="514" y="452" width="40" height="16" fill="#7a5548" rx="1" opacity="0.55"/><rect x="558" y="452" width="40" height="16" fill="#7a5548" rx="1" opacity="0.55"/><rect x="602" y="452" width="40" height="16" fill="#7a5548" rx="1" opacity="0.55"/><rect x="646" y="452" width="40" height="16" fill="#7a5548" rx="1" opacity="0.55"/><rect x="690" y="452" width="40" height="16" fill="#7a5548" rx="1" opacity="0.55"/><rect x="734" y="452" width="40" height="16" fill="#7a5548" rx="1" opacity="0.55"/><rect x="778" y="452" width="40" height="16" fill="#7a5548" rx="1" opacity="0.55"/><rect x="404" y="472" width="40" height="16" fill="#7a5548" rx="1" opacity="0.55"/><rect x="448" y="472" width="40" height="16" fill="#7a5548" rx="1" opacity="0.55"/><rect x="492" y="472" width="40" height="16" fill="#7a5548" rx="1" opacity="0.55"/><rect x="536" y="472" width="40" height="16" fill="#7a5548" rx="1" opacity="0.55"/><rect x="580" y="472" width="40" height="16" fill="#7a5548" rx="1" opacity="0.55"/><rect x="624" y="472" width="40" height="16" fill="#7a5548" rx="1" opacity="0.55"/><rect x="668" y="472" width="40" height="16" fill="#7a5548" rx="1" opacity="0.55"/><rect x="712" y="472" width="40" height="16" fill="#7a5548" rx="1" opacity="0.55"/><rect x="756" y="472" width="40" height="16" fill="#7a5548" rx="1" opacity="0.55"/><rect x="800" y="472" width="40" height="16" fill="#7a5548" rx="1" opacity="0.55"/><rect x="382" y="492" width="40" height="16" fill="#7a5548" rx="1" opacity="0.55"/><rect x="426" y="492" width="40" height="16" fill="#7a5548" rx="1" opacity="0.55"/><rect x="470" y="492" width="40" height="16" fill="#7a5548" rx="1" opacity="0.55"/><rect x="514" y="492" width="40" height="16" fill="#7a5548" rx="1" opacity="0.55"/><rect x="558" y="492" width="40" height="16" fill="#7a5548" rx="1" opacity="0.55"/><rect x="602" y="492" width="40" height="16" fill="#7a5548" rx="1" opacity="0.55"/><rect x="646" y="492" width="40" height="16" fill="#7a5548" rx="1" opacity="0.55"/><rect x="690" y="492" width="40" height="16" fill="#7a5548" rx="1" opacity="0.55"/><rect x="734" y="492" width="40" height="16" fill="#7a5548" rx="1" opacity="0.55"/><rect x="778" y="492" width="40" height="16" fill="#7a5548" rx="1" opacity="0.55"/><rect x="372" y="238" width="456" height="20" fill="#55403a" rx="3"/><rect x="520" y="316" width="160" height="192" fill="#2f6f86" rx="2"/><line x1="600" y1="316" x2="600" y2="508" stroke="#25596b" stroke-width="3"/><circle cx="578" cy="418" r="5" fill="#1d4a5a"/><circle cx="622" cy="418" r="5" fill="#1d4a5a"/><rect x="700" y="330" width="78" height="96" fill="#f5d400" rx="3"/><path d="M739 344 L770 406 L708 406 Z" fill="#1a1a1a"/><text x="739" y="398" text-anchor="middle" font-family="'Segoe UI',sans-serif" font-size="34" font-weight="700" fill="#f5d400">!</text><text x="739" y="420" text-anchor="middle" font-family="'Segoe UI',sans-serif" font-size="11" font-weight="700" fill="#1a1a1a">DANGER OF DEATH</text><rect x="340" y="496" width="520" height="14" fill="#39424f"/><rect x="150" y="470" width="8" height="40" fill="#2b3444"/><rect x="260" y="470" width="8" height="40" fill="#2b3444"/><rect x="370" y="470" width="8" height="40" fill="#2b3444"/><rect x="480" y="470" width="8" height="40" fill="#2b3444"/><rect x="590" y="470" width="8" height="40" fill="#2b3444"/><rect x="700" y="470" width="8" height="40" fill="#2b3444"/><rect x="810" y="470" width="8" height="40" fill="#2b3444"/><rect x="920" y="470" width="8" height="40" fill="#2b3444"/><rect x="1030" y="470" width="8" height="40" fill="#2b3444"/><rect x="0" y="696" width="1200" height="54" fill="#0d1016" opacity="0.55"/><text x="34" y="730" font-family="'Segoe UI',system-ui,sans-serif" font-size="21" fill="#e8ecf2" opacity="0.8">Local substation</text>
</svg>
