<?xml version="1.0" encoding="UTF-8" standalone="no"?>
<!-- Created with Inkscape (http://www.inkscape.org/) -->

<svg
   width="210mm"
   height="84mm"
   viewBox="0 0 210 83.999996"
   version="1.1"
   id="svg5"
   xml:space="preserve"
   inkscape:export-filename="ttxgym.svg.svg"
   inkscape:export-xdpi="96"
   inkscape:export-ydpi="96"
   inkscape:version="1.1.2 (0a00cf5339, 2022-02-04)"
   sodipodi:docname="ttxgym.svg"
   xmlns:inkscape="http://www.inkscape.org/namespaces/inkscape"
   xmlns:sodipodi="http://sodipodi.sourceforge.net/DTD/sodipodi-0.dtd"
   xmlns="http://www.w3.org/2000/svg"
   xmlns:svg="http://www.w3.org/2000/svg"><sodipodi:namedview
     id="namedview7"
     pagecolor="#ffffff"
     bordercolor="#000000"
     borderopacity="0.25"
     inkscape:showpageshadow="2"
     inkscape:pageopacity="0"
     inkscape:pagecheckerboard="true"
     inkscape:deskcolor="#d1d1d1"
     inkscape:document-units="mm"
     showgrid="false"
     inkscape:zoom="0.36925856"
     inkscape:cx="-1064.2949"
     inkscape:cy="159.77964"
     inkscape:window-width="1920"
     inkscape:window-height="1008"
     inkscape:window-x="0"
     inkscape:window-y="1080"
     inkscape:window-maximized="1"
     inkscape:current-layer="layer1"
     inkscape:pageshadow="2" /><defs
     id="defs2" /><g
     inkscape:label="Layer 1"
     inkscape:groupmode="layer"
     id="layer1"><path
       style="fill:#ffffff;stroke-width:0.144177"
       d="m 26.578039,81.021453 c -0.0439,-0.071 0.03978,-0.28263 0.185983,-0.47036 1.311927,-1.68534 3.639855,-5.502462 5.220114,-8.559464 C 38.279111,59.814061 40.615459,45.873306 38.665185,32.126537 37.2587,22.212685 33.557938,12.59703 27.997377,4.4084047 l -1.3462,-1.982437 5.436392,0.0021 5.436382,0.0021 1.40982,2.557101 c 2.522363,4.575035 4.243812,8.5214633 5.769337,13.2262383 6.107588,18.835993 4.615545,39.223717 -4.167783,56.950123 -0.589373,1.189457 -1.607315,3.006103 -2.262092,4.036963 l -1.190513,1.87431 -5.212463,0.0379 c -2.957294,0.0214 -5.24697,-0.0179 -5.292218,-0.0912 z m 35.924084,-0.0286 c -1.603358,-0.38525 -3.146168,-1.67929 -3.90041,-3.2715 l -0.460373,-0.97187 v -9.731985 -9.731983 l 0.47064,-0.962093 c 0.817123,-1.670376 2.149173,-2.774973 3.881596,-3.2188 0.768181,-0.196799 2.098574,-0.22127 10.08887,-0.185561 9.200985,0.04115 9.204277,0.04126 10.016894,0.369845 1.187347,0.480148 2.594836,1.823046 3.180052,3.034115 0.444291,0.91942 0.467685,1.054456 0.522915,3.017034 l 0.05783,2.05453 h -3.115852 -3.115852 v -1.153422 -1.153422 h -8.003075 -8.003064 l 0.03725,7.965804 0.03725,7.965814 7.965804,0.03725 7.965804,0.03725 v -2.163882 -2.163893 h -3.027719 -3.02773 v -3.02772 -3.02773 h 6.134855 6.134866 l -0.04337,6.019414 -0.04337,6.019405 -0.463865,0.94788 c -0.594481,1.21481 -1.698782,2.31911 -2.913576,2.91359 l -0.947886,0.46386 -9.443633,0.0241 c -5.211651,0.0133 -9.686177,-0.0342 -9.984879,-0.106 z m 37.955307,-5.126941 v -5.280979 l -1.344169,-1.819764 c -0.739298,-1.000858 -3.6589,-4.950452 -6.487984,-8.776859 -2.829095,-3.826422 -5.143811,-6.989316 -5.143811,-7.028665 0,-0.03936 1.617879,-0.07154 3.595271,-0.07154 h 3.595282 l 4.42039,5.550836 c 2.431221,3.05296 4.432961,5.550842 4.448301,5.550842 0.0153,0 2.00418,-2.497006 4.41964,-5.54889 l 4.39174,-5.548884 3.64048,-0.0021 c 2.00227,-0.001 3.64048,0.03218 3.64048,0.07376 0,0.04168 -1.83591,2.555739 -4.0798,5.586882 -2.24389,3.031139 -5.16348,6.979234 -6.48798,8.773567 l -2.40819,3.262401 v 5.280114 5.2801 h -3.09983 -3.09982 z m 21.1941,-8.848414 V 52.888101 l 3.13587,5.7e-4 3.13586,5.8e-4 3.17191,3.780699 c 1.74455,2.079391 3.89837,4.64314 4.78628,5.697244 l 1.61436,1.916538 4.77081,-5.697761 4.77081,-5.69787 h 3.16659 3.16657 v 14.129397 14.129405 h -3.09878 -3.09876 l -0.0371,-9.382769 -0.037,-9.382768 -4.75785,5.697085 c -2.61683,3.1334 -4.7903,5.700884 -4.82996,5.705506 -0.0397,0.0042 -2.24556,-2.565511 -4.90203,-5.711405 l -4.82995,-5.719804 -0.037,9.397077 -0.0371,9.397078 h -3.02668 -3.02669 z m 52.8802,11.930695 c -5.15518,-8.267119 -8.66247,-19.326858 -9.79592,-30.890037 -0.24331,-2.48236 -0.24156,-10.536496 0.003,-12.975982 1.12233,-11.203007 4.06279,-20.780917 9.1843,-29.9160563 l 1.53618,-2.74015 h 5.47631 5.47631 l -0.49924,0.68484 c -2.41341,3.310656 -5.29765,8.4418153 -7.00382,12.4600833 -6.83569,16.098892 -7.07266,34.022086 -0.66592,50.365278 1.74301,4.446298 4.74992,9.997815 7.52608,13.895014 0.41656,0.58477 0.72226,1.12003 0.67935,1.18946 -0.0429,0.0694 -2.43321,0.12626 -5.31175,0.12626 H 175.9029 Z M 14.500896,64.890886 C 22.489293,52.97521 23.670932,37.550731 17.596309,24.485129 17.282928,23.811095 16.400604,22.237758 15.635599,20.988827 L 14.244667,18.71803 h 5.166097 5.166087 l 0.803415,1.698254 c 5.365207,11.340999 6.308978,24.008992 2.687685,36.076248 -0.753947,2.512395 -1.94733,5.507012 -3.117002,7.821643 l -0.928945,1.838262 H 18.83857 13.655135 Z M 188.14448,64.45835 c -4.60694,-9.066036 -6.34795,-19.950671 -4.79103,-29.952887 0.79263,-5.092105 2.34256,-10.128325 4.37061,-14.201486 l 0.75375,-1.513865 5.15491,-0.03788 5.15492,-0.03788 -1.44187,2.36676 c -1.68405,2.764325 -2.62234,4.771433 -3.60217,7.705364 -1.48568,4.448683 -2.16923,8.595656 -2.16312,13.123333 0.0109,8.068699 2.41694,16.120002 6.77075,22.656654 0.44893,0.674024 0.86412,1.306609 0.92263,1.405726 0.0843,0.142814 -0.97051,0.180221 -5.08108,0.180221 h -5.18744 z M 4.146863,51.941186 c 0,-0.04506 0.44678,-0.969549 0.99284,-2.054529 1.56297,-3.105469 1.81674,-4.159426 1.81148,-7.523519 -0.003,-2.117705 -0.0453,-2.529327 -0.38251,-3.748616 -0.62502,-2.259971 -1.27274,-3.70054 -2.47959,-5.514785 l -0.26374,-0.396489 h 4.03913 4.039129 l 0.508459,1.214635 c 1.175244,2.807495 1.592501,5.008816 1.600805,8.445255 0.0084,3.455866 -0.441579,6.004916 -1.515078,8.583574 l -0.448069,1.076317 H 8.098293 c -2.17329,0 -3.95143,-0.03683 -3.95143,-0.08188 z m 196.801817,0.0458 c 0,-0.01984 -0.19934,-0.522652 -0.44235,-1.117376 -0.24303,-0.594734 -0.62663,-1.835993 -0.85249,-2.758363 -1.17752,-4.80902 -0.86406,-9.679602 0.90117,-14.002281 l 0.57405,-1.405726 h 4.0357 4.03569 l -0.26157,0.39649 c -1.23002,1.864399 -2.0063,3.624311 -2.54655,5.77324 -0.26627,1.059149 -0.3139,1.638572 -0.30464,3.706429 0.0142,3.191363 0.30209,4.354515 1.81632,7.340458 l 1.06655,2.103165 h -4.01068 c -2.20589,0 -4.01093,-0.01625 -4.0112,-0.03609 z M 56.568246,45.210647 c 0.132103,-1.209011 0.11982,-5.767859 -0.01826,-6.776346 l -0.09381,-0.68484 h 50.057284 50.05728 l -0.0914,0.829015 c -0.14125,1.281811 -0.15482,4.862077 -0.0241,6.34381 l 0.1177,1.333644 H 106.51352 56.453986 Z M 71.045229,20.159802 V 8.7697787 h -5.695017 -5.695007 v -3.171906 -3.171905 h 14.561929 14.561929 v 3.171905 3.171906 H 83.084046 77.38904 V 20.159802 31.549826 h -3.171906 -3.171905 z m 32.584121,0 V 8.7697787 h -5.767107 -5.767099 v -3.171906 -3.171905 h 14.634016 14.63402 v 3.171905 3.171906 h -5.69501 -5.69501 V 20.159802 31.549826 h -3.1719 -3.17191 z m 20.33009,10.272648 0.001,-1.117375 5.11724,-6.112717 c 2.81453,-3.361993 5.11729,-6.171028 5.11729,-6.242298 0,-0.07123 -2.30323,-2.881476 -5.1183,-6.244894 l -5.1183,-6.1153013 v -1.086954 -1.086943 l 3.28003,0.0063 3.28005,0.0063 3.8207,4.544782 c 2.10139,2.499633 3.91803,4.6295583 4.03697,4.7331703 0.18592,0.161956 0.77129,-0.476686 4.17186,-4.5515563 l 3.95559,-4.739934 h 3.28934 3.28932 v 1.052384 1.052384 l -5.19039,6.1834383 c -2.85472,3.400899 -5.1886,6.219979 -5.18639,6.264626 0.002,0.04464 2.33524,2.838581 5.18451,6.208731 l 5.18051,6.127543 0.006,1.117375 0.006,1.117376 -3.28004,-0.0032 -3.28003,-0.0032 -4.03542,-4.764205 c -3.77303,-4.454434 -4.04959,-4.7469 -4.25324,-4.498099 -0.1198,0.146359 -1.92418,2.291532 -4.00975,4.767043 l -3.792,4.500917 h -3.23672 -3.23673 l 0.001,-1.117376 z"
       id="path179" /></g></svg>
